<?xml version="1.0" encoding="utf-8"?>
<!-- Generator: Adobe Illustrator 21.0.1, SVG Export Plug-In . SVG Version: 6.00 Build 0)  -->
<svg version="1.1" id="Layer_1" xmlns="http://www.w3.org/2000/svg" xmlns:xlink="http://www.w3.org/1999/xlink" x="0px" y="0px"
	 viewBox="0 0 508 508" style="enable-background:new 0 0 508 508;" xml:space="preserve">
<style type="text/css">
	.st0{fill:#FFA236;}
	.st1{fill:#AFB9D2;}
	.st2{fill:#E1C3A0;}
	.st3{fill:#EBD2AF;}
	.st4{fill:#D29B6E;}
	.st5{fill:#707487;}
	.st6{fill:#5B5D6E;}
	.st7{fill:#694B4B;}
	.st8{fill:#F0C087;}
	.st9{fill:#F0DCBE;}
	.st10{fill:#C7CFE2;}
	.st11{fill:#959CB3;}
	.st12{fill:#C5D0E4;}
</style>
<g>
	<g>
		<g>
			<circle class="st0" cx="254" cy="254" r="254"/>
			<path class="st1" d="M285.2,149.9H223c-5.2,0-9.5,3.9-10,9l-5.8,58H301l-5.8-58C294.7,153.8,290.4,149.9,285.2,149.9z"/>
			<rect x="72.9" y="216.9" class="st2" width="363.1" height="121"/>
			<g>
				<path class="st3" d="M72.9,371.5L72.9,371.5c-3.8,0-6.8-3-6.8-6.7V216.9h13.7v147.8C79.7,368.5,76.6,371.5,72.9,371.5z"/>
				<path class="st3" d="M435.3,371.5L435.3,371.5c-3.8,0-6.8-3-6.8-6.7V216.9h13.7v147.8C442.1,368.5,439,371.5,435.3,371.5z"/>
			</g>
			<polygon class="st4" points="270.9,170.5 270.9,156 238.1,156 238.1,170.5 254.5,187.1 			"/>
			<path class="st5" d="M295.7,173.4l-22.5-5c-0.3-0.1-0.7-0.2-0.9-0.4L254,178l-17.5-10.6c-0.5,0.4-1,0.7-1.7,0.8l-22.5,5
				c-3.3,0.8-5.6,3.5-5.6,6.7v30.4c0,1.9,1.6,3.4,3.7,3.4h87.1c2,0,3.7-1.5,3.7-3.4v-30.4C301.3,176.9,299,174.1,295.7,173.4z"/>
			<g>
				<path class="st6" d="M287.6,185.8l11.5-10c1,1.2,1.5,2.7,1.5,4.3v30.4c0,1.9-1.6,3.4-3.6,3.4h-12.4v-21.7
					C284.6,189.9,285.7,187.5,287.6,185.8z"/>
				<path class="st6" d="M220.7,185.8l-11.5-10c-1,1.2-1.5,2.7-1.5,4.3v30.4c0,1.9,1.6,3.4,3.6,3.4h12.4v-21.7
					C223.6,189.9,222.5,187.5,220.7,185.8z"/>
				<polygon class="st6" points="258.6,213.9 249.6,213.9 250.7,178.1 257.5,178.1 				"/>
				<path class="st6" d="M237.6,163.5l16.5,14.2c0,0-4.6,2.2-10.4,6.7c-1.1,0.9-3,0.5-3.6-0.8l-7.8-16.3l2.4-3.5
					C235.5,163,236.8,162.9,237.6,163.5z"/>
				<path class="st6" d="M270.6,163.5l-16.5,14.2c0,0,4.6,2.2,10.4,6.7c1.1,0.9,3,0.5,3.6-0.8l7.8-16.3l-2.4-3.5
					C272.8,163,271.5,162.9,270.6,163.5z"/>
			</g>
			<path class="st7" d="M259.4,108h-10.7c-8.8,0-16,6.7-16,15v10.9c0,2.7,1.1,5.2,3.1,7.1l2.2,2.1h32l2.2-2.1c2-1.9,3.1-4.4,3.1-7.1
				V123C275.4,114.7,268.2,108,259.4,108z"/>
			<path class="st8" d="M233.3,130.9l0.8,19.3c0.2,3,1.6,5.8,4,7.6l6.9,5.3c1.8,1.3,3.8,2.1,5.9,2.1h6.6c2.1,0,4.3-0.7,5.9-2.1
				l6.9-5.3c2.4-1.8,3.8-4.6,4-7.6l0.8-19.3c0.3-7.1-5.2-12.9-12.1-12.9h-17.5C238.4,117.9,232.9,123.8,233.3,130.9z"/>
			<path class="st9" d="M442.3,210.1H65.9c-3.7,0-6.7,3.1-6.7,6.9l0,0c0,3.8,3,6.9,6.7,6.9h376.3c3.7,0,6.7-3.1,6.7-6.9l0,0
				C449,213.2,445.9,210.1,442.3,210.1z"/>
			<path class="st10" d="M394.9,211.9c-3.8,0-6.8-3.1-6.8-6.9v-52.2l-19.4-19.5c-2.6-2.6-6-4-9.7-4h-3.7v13.8c0,4.6-4.5,8.1-9.2,6.5
				c-2.7-0.9-4.5-3.6-4.5-6.5v-20.6c0-3.8,3.1-6.9,6.9-6.9h10.6c7.3,0,14.2,2.9,19.4,8l21.4,21.5c1.3,1.3,2,3,2,4.8v55
				C401.7,208.8,398.7,211.9,394.9,211.9z"/>
			<g>
				<path class="st1" d="M354.9,143.1h-13.5c-7.4,0-13.5,6-13.5,13.5v5.4c0,0.9,0.8,1.7,1.7,1.7h37c0.9,0,1.7-0.8,1.7-1.7v-5.2
					C368.4,149.2,362.4,143.1,354.9,143.1z"/>
				<path class="st1" d="M408.6,210.1h-47.2v-6.9c0-3.8,3.1-6.9,6.9-6.9h33.6c0,0,6.7,3.4,6,7.1v6.7L408.6,210.1z"/>
			</g>
			<g>
				<circle class="st11" cx="348.2" cy="122.7" r="6.7"/>
				<circle class="st11" cx="395.2" cy="149.7" r="6.7"/>
			</g>
			<path class="st5" d="M164.9,210.1h-63.6c-0.9,0-1.7-0.8-1.7-1.7V198c0-0.9,0.8-1.7,1.7-1.7h63.6c0.9,0,1.7,0.8,1.7,1.7v10.3
				C166.6,209.3,165.9,210.1,164.9,210.1z"/>
			<path class="st1" d="M164.9,183.4h-56.8c-0.9,0-1.7-0.8-1.7-1.7v-10.4c0-0.9,0.8-1.7,1.7-1.7h56.8c0.9,0,1.7,0.8,1.7,1.7v10.3
				C166.6,182.6,165.9,183.4,164.9,183.4z"/>
			<g>
				<path class="st10" d="M171.7,169.7H121c-0.9,0-1.7-0.8-1.7-1.7v-10.4c0-0.9,0.8-1.7,1.7-1.7h50.7c0.9,0,1.7,0.8,1.7,1.7V168
					C173.4,168.9,172.7,169.7,171.7,169.7z"/>
				<path class="st10" d="M171.8,197.1H115c-0.9,0-1.7-0.8-1.7-1.7V185c0-0.9,0.8-1.7,1.7-1.7h56.8c0.9,0,1.7,0.8,1.7,1.7v10.3
					C173.4,196.4,172.7,197.1,171.8,197.1z"/>
			</g>
			<path class="st12" d="M340,210.1h-17.2c-0.9,0-1.7-0.8-1.7-1.7v-23.3c0-0.9,0.8-1.7,1.7-1.7H340c0.9,0,1.7,0.8,1.7,1.7v23.3
				C341.7,209.3,340.9,210.1,340,210.1z"/>
		</g>
	</g>
</g>
</svg>
