<svg xmlns="http://www.w3.org/2000/svg" viewBox="0 0 30 26.51"><defs><style>.cls-1{fill:#e7e5ce;}</style></defs><title>github</title><g id="Layer_2" data-name="Layer 2"><g id="sider"><path class="cls-1" d="M10.1,14.54A3,3,0,0,0,7.38,17.8a3,3,0,0,0,2.72,3.27,3,3,0,0,0,2.72-3.27A3,3,0,0,0,10.1,14.54Zm0,5.44c-.9,0-1.63-1-1.63-2.18s.73-2.18,1.63-2.18,1.63,1,1.63,2.18S11,20,10.1,20Z"/><path class="cls-1" d="M20.44,14.54a3,3,0,0,0-2.72,3.27,3,3,0,0,0,2.72,3.27,3,3,0,0,0,2.72-3.27A3,3,0,0,0,20.44,14.54Zm0,5.44c-.9,0-1.63-1-1.63-2.18s.73-2.18,1.63-2.18,1.63,1,1.63,2.18S21.34,20,20.44,20Z"/><path class="cls-1" d="M21.27,11.82h-.08l-1.51,0-1.38,0-.8,0c-1.38,0-2.82.06-4.22.05-.64,0-1.28,0-1.92-.05-.87,0-1.77-.07-2.66,0a4.59,4.59,0,0,0-3.09,1.18h0A5.69,5.69,0,0,0,3.9,18.12c.3,3.13,1.56,4.73,4.36,5.52a23.29,23.29,0,0,0,6.71.7h2.16a17.68,17.68,0,0,0,5.24-.89,5.14,5.14,0,0,0,3.41-3.36,7.94,7.94,0,0,0,.37-3.63C25.88,14.51,24.2,11.82,21.27,11.82Zm3.47,7.91A4.05,4.05,0,0,1,22,22.4a16.63,16.63,0,0,1-4.92.84c-.49,0-1,0-1.46,0H15a22.3,22.3,0,0,1-6.4-.66C6.2,21.92,5.23,20.68,5,18a4.67,4.67,0,0,1,1.37-4.15A3.54,3.54,0,0,1,8.73,13c.86,0,1.74,0,2.59,0,.65,0,1.3,0,2,.05,1.42,0,2.86,0,4.25-.05l.8,0,1.4,0,1.49,0h.06c2.25,0,3.6,2.19,3.8,3.69A6.87,6.87,0,0,1,24.75,19.73Z"/><path class="cls-1" d="M28.23,8.36a1.54,1.54,0,0,1-.43-1.18,13,13,0,0,0-.17-3V4.12a14.22,14.22,0,0,0-1-3.71L26.43,0l-.8.17A11,11,0,0,0,22.3,1.26c-.7.4-1.39.83-2.07,1.25l-1.35.83-.09,0h0a22.52,22.52,0,0,0-7.52,0,.43.43,0,0,1-.22-.06c-.28-.17-.55-.35-.83-.53s-.64-.42-1-.61A14,14,0,0,0,4,.09L3.57,0,3.35.5c0,.08-.07.16-.1.23a17.42,17.42,0,0,0-1,4.95,8.84,8.84,0,0,0,0,1.84c0,.21,0,.25-.08.35a9.19,9.19,0,0,0-1.6,2.92A13.21,13.21,0,0,0,.2,17a11.72,11.72,0,0,0,1.62,4.82,9.92,9.92,0,0,0,8,4.56c1.78.15,3.58.17,5.35.17h2.62a15.32,15.32,0,0,0,5.74-.94,9.38,9.38,0,0,0,5.8-6.36A17,17,0,0,0,30,13.8,9.58,9.58,0,0,0,28.23,8.36Zm0,10.54a8.24,8.24,0,0,1-5.16,5.66,14,14,0,0,1-5.34.87H16.28c-2.1,0-4.27,0-6.38-.17a8.78,8.78,0,0,1-7.15-4.06,10.69,10.69,0,0,1-1.46-4.4,12,12,0,0,1,.29-5.67A8.14,8.14,0,0,1,3,8.55a1.39,1.39,0,0,0,.3-1.18,8.32,8.32,0,0,1,0-1.67,16.22,16.22,0,0,1,.93-4.46A13.65,13.65,0,0,1,8.72,3.09c.31.18.61.38.91.58s.57.38.87.55a1.46,1.46,0,0,0,1,.2,21.43,21.43,0,0,1,7.16,0,1.28,1.28,0,0,0,.83-.17l1.37-.84c.68-.42,1.35-.84,2-1.23a9.75,9.75,0,0,1,2.93-.95,13.3,13.3,0,0,1,.77,3v.06a12.23,12.23,0,0,1,.17,2.74A2.6,2.6,0,0,0,27.35,9a8.41,8.41,0,0,1,1.55,4.83A15.92,15.92,0,0,1,28.27,18.9Z"/></g></g></svg>