<?xml version="1.0" encoding="utf-8"?>
<!-- Generator: Adobe Illustrator 21.0.1, SVG Export Plug-In . SVG Version: 6.00 Build 0)  -->
<svg version="1.1" id="Layer_1" xmlns="http://www.w3.org/2000/svg" xmlns:xlink="http://www.w3.org/1999/xlink" x="0px" y="0px"
	 viewBox="0 0 30 26.5" style="enable-background:new 0 0 30 26.5;" xml:space="preserve">
<title>github</title>
<g id="Layer_2">
	<g id="sider">
		<path d="M10.1,14.5c-1.7,0.1-2.9,1.6-2.7,3.3c0,0,0,0,0,0c-0.2,1.6,1.1,3.1,2.7,3.3c0,0,0,0,0,0c1.7-0.1,2.9-1.6,2.7-3.3
			c0,0,0,0,0,0C13,16.1,11.8,14.7,10.1,14.5C10.1,14.5,10.1,14.5,10.1,14.5z M10.1,20c-0.9,0-1.6-1-1.6-2.2s0.7-2.2,1.6-2.2
			s1.6,1,1.6,2.2S11,20,10.1,20L10.1,20z"/>
		<path d="M20.4,14.5c-1.7,0.1-2.9,1.6-2.7,3.3c0,0,0,0,0,0c-0.2,1.6,1.1,3.1,2.7,3.3c0,0,0,0,0,0c1.7-0.1,2.9-1.6,2.7-3.3
			c0,0,0,0,0,0C23.3,16.2,22.1,14.7,20.4,14.5C20.5,14.5,20.4,14.5,20.4,14.5z M20.4,20c-0.9,0-1.6-1-1.6-2.2s0.7-2.2,1.6-2.2
			s1.6,1,1.6,2.2S21.3,20,20.4,20L20.4,20z"/>
		<path d="M21.3,11.8L21.3,11.8h-1.6h-1.4h-0.8c-1.4,0-2.8,0.1-4.2,0.1c-0.6,0-1.3,0-1.9-0.1c-0.9,0-1.8-0.1-2.7,0
			c-1.1,0-2.2,0.4-3.1,1.2l0,0c-1.4,1.3-2,3.2-1.7,5.1c0.3,3.1,1.6,4.7,4.4,5.5c2.2,0.6,4.5,0.8,6.7,0.7h2.2c1.8,0,3.5-0.3,5.2-0.9
			c1.6-0.5,2.9-1.7,3.4-3.4c0.4-1.2,0.5-2.4,0.4-3.6C25.9,14.5,24.2,11.8,21.3,11.8z M24.7,19.7C24.3,21,23.3,22,22,22.4
			c-1.6,0.5-3.2,0.8-4.9,0.8c-0.5,0-1,0-1.5,0H15c-2.2,0.1-4.3-0.1-6.4-0.7C6.2,21.9,5.2,20.7,5,18c-0.3-1.5,0.3-3.1,1.4-4.1
			C7,13.3,7.9,13,8.7,13c0.9,0,1.7,0,2.6,0c0.6,0,1.3,0,2,0.1c1.4,0,2.9,0,4.2-0.1h0.8h1.4h1.5h0.1c2.2,0,3.6,2.2,3.8,3.7
			C25.2,17.7,25.1,18.8,24.7,19.7L24.7,19.7z"/>
		<path d="M28.2,8.4c-0.3-0.3-0.5-0.7-0.4-1.2c0.1-1,0-2-0.2-3V4.1c-0.2-1.3-0.5-2.5-1-3.7L26.4,0l-0.8,0.2
			c-1.2,0.2-2.3,0.6-3.3,1.1c-0.7,0.4-1.4,0.8-2.1,1.3l-1.4,0.8h-0.1l0,0c-2.5-0.4-5-0.4-7.5,0c-0.1,0-0.2,0-0.2-0.1
			c-0.3-0.2-0.6-0.3-0.8-0.5s-0.6-0.4-1-0.6c-1.6-1-3.4-1.7-5.2-2L3.6,0L3.3,0.5c0,0.1-0.1,0.2-0.1,0.2C2.7,2.3,2.3,4,2.2,5.7
			c-0.1,0.6-0.1,1.2,0,1.8c0,0.2,0,0.2-0.1,0.3c-0.7,0.9-1.2,1.9-1.6,2.9c-0.6,2-0.7,4.1-0.4,6.2c0.2,1.7,0.7,3.4,1.6,4.8
			c1.8,2.7,4.7,4.4,8,4.6c1.8,0.1,3.6,0.2,5.4,0.2h2.6c2,0.1,3.9-0.3,5.7-0.9c2.8-1.1,5-3.4,5.8-6.4c0.5-1.8,0.7-3.6,0.7-5.4
			C30,11.8,29.4,10,28.2,8.4z M28.2,18.9c-0.7,2.6-2.6,4.7-5.2,5.7c-1.7,0.6-3.5,0.9-5.3,0.9h-1.4c-2.1,0-4.3,0-6.4-0.2
			c-2.9-0.1-5.6-1.6-7.2-4.1c-0.8-1.3-1.3-2.8-1.5-4.4C0.9,14.9,1,13,1.6,11.1C1.9,10.2,2.4,9.3,3,8.5c0.3-0.3,0.4-0.8,0.3-1.2
			c-0.1-0.6-0.1-1.1,0-1.7c0.1-1.5,0.4-3,0.9-4.5c1.6,0.3,3.1,1,4.5,1.8C9,3.3,9.3,3.5,9.6,3.7s0.6,0.4,0.9,0.5
			c0.3,0.2,0.7,0.3,1,0.2c2.4-0.4,4.8-0.4,7.2,0c0.3,0,0.6,0,0.8-0.2l1.4-0.8c0.7-0.4,1.4-0.8,2-1.2c0.9-0.5,1.9-0.8,2.9-1
			c0.4,1,0.6,2,0.8,3v0.1c0.2,0.9,0.2,1.8,0.2,2.7c-0.1,0.7,0.2,1.4,0.6,2c1,1.4,1.5,3.1,1.5,4.8C29,15.5,28.8,17.3,28.2,18.9
			L28.2,18.9z"/>
	</g>
</g>
</svg>
