<?xml version="1.0" encoding="utf-8"?>
<!-- Generator: Adobe Illustrator 21.0.1, SVG Export Plug-In . SVG Version: 6.00 Build 0)  -->
<svg version="1.1" id="Layer_1" xmlns="http://www.w3.org/2000/svg" xmlns:xlink="http://www.w3.org/1999/xlink" x="0px" y="0px"
	 viewBox="0 0 30 30" style="enable-background:new 0 0 30 30;" xml:space="preserve">
<title>location</title>
<g id="Layer_2">
	<g id="sider">
		<path d="M15,13c1.9,0,3.5-1.6,3.5-3.5S16.9,6,15,6s-3.5,1.6-3.5,3.5S13.1,13,15,13z M15,7c1.4,0,2.5,1.1,2.5,2.5S16.4,12,15,12
			s-2.5-1.1-2.5-2.5S13.6,7,15,7z"/>
		<path d="M14.9,27.4l7.7-11.1c2.9-4.2,2.5-9.7-0.9-13.5c-3.7-3.7-9.8-3.7-13.6,0c-3.4,3.7-3.7,9.3-0.9,13.5L14.9,27.4z M8.8,3.5
			c3.4-3.4,8.8-3.4,12.1,0c0,0,0,0,0,0c3.1,3.4,3.4,8.4,0.8,12.2l-6.9,9.9L8,15.7C5.4,11.9,5.8,6.9,8.8,3.5z"/>
		<path d="M21.1,21.5c-0.3,0-0.5,0.2-0.6,0.4c0,0.3,0.2,0.5,0.4,0.6c5.3,0.6,8.1,2.3,8.1,3.2c0,1.4-5.3,3.2-14,3.2S1,27.1,1,25.7
			c0-1,2.8-2.6,8.1-3.2c0.3,0,0.5-0.3,0.4-0.6c0-0.3-0.3-0.5-0.6-0.4C3.7,22.1,0,23.9,0,25.7C0,27.9,5.2,30,15,30s15-2.1,15-4.2
			C30,23.9,26.3,22.1,21.1,21.5z"/>
	</g>
</g>
</svg>
