<?xml version="1.0" encoding="utf-8"?>
<!-- Generator: Adobe Illustrator 21.0.1, SVG Export Plug-In . SVG Version: 6.00 Build 0)  -->
<svg version="1.1" id="Layer_1" xmlns="http://www.w3.org/2000/svg" xmlns:xlink="http://www.w3.org/1999/xlink" x="0px" y="0px"
	 viewBox="0 0 30 21.3" style="enable-background:new 0 0 30 21.3;" xml:space="preserve">
<title>mail</title>
<g id="Layer_2">
	<g id="sider">
		<path d="M24.3,16.5c-0.1,0-0.2,0-0.3-0.1l-5.6-5.2c-0.2-0.2-0.2-0.5,0-0.7c0.2-0.2,0.5-0.2,0.7,0l5.6,5.2c0.2,0.2,0.2,0.5,0,0.7
			C24.6,16.4,24.4,16.5,24.3,16.5L24.3,16.5z"/>
		<path d="M5.7,16.5c-0.3,0-0.5-0.2-0.5-0.5c0-0.1,0.1-0.3,0.2-0.4l5.6-5.2c0.2-0.2,0.5-0.2,0.7,0c0.2,0.2,0.2,0.5,0,0.7l0,0L6,16.3
			C5.9,16.4,5.8,16.5,5.7,16.5z"/>
		<path d="M27.6,21.3H2.4c-1.3,0-2.4-1.1-2.4-2.4V2.4C0,1.1,1.1,0,2.4,0h25.2C28.9,0,30,1.1,30,2.4v16.5
			C30,20.2,28.9,21.3,27.6,21.3z M2.4,1C1.6,1,1,1.6,1,2.4v16.5c0,0.8,0.6,1.5,1.4,1.5c0,0,0,0,0,0h25.1c0.8,0,1.4-0.7,1.4-1.5V2.4
			C29,1.6,28.4,1,27.6,1H2.4z"/>
		<path d="M15,13.1c-0.7,0-1.3-0.2-1.8-0.6L0.8,1.6c-0.2-0.2-0.2-0.5,0-0.7s0.5-0.2,0.7,0l12.4,10.8c0.7,0.5,1.6,0.5,2.3,0L28.5,0.9
			c0.2-0.2,0.5-0.2,0.7,0s0.2,0.5,0,0.7L16.8,12.4C16.3,12.9,15.7,13.1,15,13.1z"/>
	</g>
</g>
</svg>
