<svg xmlns="http://www.w3.org/2000/svg" viewBox="0 0 30 21.33"><defs><style>.cls-1{fill:#e7e5ce;}</style></defs><title>mail</title><g id="Layer_2" data-name="Layer 2"><g id="sider"><path class="cls-1" d="M24.29,16.47a.48.48,0,0,1-.33-.13l-5.57-5.22a.48.48,0,1,1,.66-.7l5.57,5.22a.48.48,0,0,1-.33.84Z"/><path class="cls-1" d="M5.71,16.47a.48.48,0,0,1-.33-.84l5.57-5.22a.48.48,0,1,1,.66.7L6,16.34A.48.48,0,0,1,5.71,16.47Z"/><path class="cls-1" d="M27.58,21.33H2.42A2.42,2.42,0,0,1,0,18.91V2.42A2.42,2.42,0,0,1,2.42,0H27.58A2.42,2.42,0,0,1,30,2.42V18.91A2.42,2.42,0,0,1,27.58,21.33ZM2.42,1A1.45,1.45,0,0,0,1,2.42V18.91a1.45,1.45,0,0,0,1.45,1.45H27.58A1.45,1.45,0,0,0,29,18.91V2.42A1.45,1.45,0,0,0,27.58,1Z"/><path class="cls-1" d="M15,13.09a2.71,2.71,0,0,1-1.78-.64L.8,1.62A.48.48,0,1,1,1.44.89L13.86,11.72a1.81,1.81,0,0,0,2.28,0L28.55.91a.48.48,0,1,1,.64.73L16.78,12.45A2.7,2.7,0,0,1,15,13.09Z"/></g></g></svg>