<?xml version="1.0" encoding="utf-8"?>
<!-- Generator: Adobe Illustrator 21.0.1, SVG Export Plug-In . SVG Version: 6.00 Build 0)  -->
<svg version="1.1" id="Layer_1" xmlns="http://www.w3.org/2000/svg" xmlns:xlink="http://www.w3.org/1999/xlink" x="0px" y="0px"
	 viewBox="0 0 508 508" style="enable-background:new 0 0 508 508;" xml:space="preserve">
<style type="text/css">
	.st0{fill:#FFA236;}
	.st1{fill:#84DBFF;}
	.st2{fill:#FFFFFF;}
	.st3{fill:#ECC81A;}
</style>
<circle class="st0" cx="254" cy="254" r="254"/>
<g>
	<path class="st1" d="M255.2,362.8c-0.4,0-0.8,0.4-1.2,0.4s-0.8-0.4-1.2-0.4H255.2z"/>
	<path class="st1" d="M431.5,434.5C427.1,451.2,346,508,252.8,508C211,508,123,485.9,79.9,440C71,393.9,154,323.2,195.6,312.4
		c18.4,17.5,24.3,35.1,24.7,34.3c32.5,16.1,32.5,16.1,32.5,16.1s14.5-5.4,34.9-17.8c0.4,0.8,12.6-6.1,22.3-32.6
		C352,323.2,431.5,380.9,431.5,434.5z"/>
</g>
<path class="st2" d="M311.2,312c0,0,0,0,0,0.4c0,4-2,29.6-56,50h-2.4c-54-20.4-56-46-56-50c0-0.4,0-0.4,0-0.4
	c0-5.2,1.2-10.4,2.4-15.6c15.6,19.6,34.4,32.8,54.8,32.8s39.2-13.2,54.8-32.8C310,301.6,311.2,306.8,311.2,312z"/>
<g>
	<path class="st2" d="M338,210.8c-3.6,24.8-14.4,48-32.4,65.6c-3.6,3.6-6.8,6.4-10.8,9.2l-6.4-20.4h-68.8l-6.4,20.4
		c-12.8-9.6-39.6-36.4-40-61.6C162,80.4,272,110.8,272,110.8C346,105.6,343.6,170.8,338,210.8z"/>
	<path class="st2" d="M352.8,236.8c-5.6,9.2-13.2,15.6-20.4,18c2.8-6.4,5.2-13.2,7.2-20c0,0,0,0,0-0.4c1.6-6,3.2-12,4.8-18H344
		c1.6-6,3.2-12,4.4-18c1.6,0,3.2,0.8,4.8,1.6C362,205.6,361.6,222,352.8,236.8z"/>
	<path class="st2" d="M175.6,254.8c-7.2-2.4-14.8-8.8-20.4-18c-9.2-14.8-9.2-31.2-0.4-36.4c0.8-0.4,1.2-0.8,2-0.8
		c4.8,18.8,10.4,32.8,11.6,35.6C170.4,241.6,172.8,248.4,175.6,254.8z"/>
</g>
<path class="st3" d="M297.6,70.8c3.2-36.8-55.2-34.4-55.2-34.4c-88.4,12.8-98,95.2-98,95.2l12-14.4c-18.8,41.2,9.6,112,12,117.6
	c14.8,49.2,47.6,94.4,85.6,94.4s70.8-45.2,85.6-94.4l0,0c0,0,0,0,0-0.4c1.6-6,3.2-12,4.4-18h-0.4c8-32,16.8-64.4,16.8-64.4
	C383.2,37.2,297.6,70.8,297.6,70.8z M338,210.8c-3.6,24.8-14.4,48-32.4,65.6c-3.6,3.6-7.2,6.4-10.8,9.2l-6.4-20h-68.8l-6.4,20.4
	c-12.8-9.6-39.6-36.4-40-61.6C162,80.8,275,114.9,275,114.9C349,109.3,343.6,170.8,338,210.8z"/>
<path class="st2" d="M226,279.2c6.8,7.6,16.8,12.8,28,12.8c11.2,0,21.2-4.8,28-12.8H226z"/>
</svg>
