<?xml version="1.0" encoding="utf-8"?>
<!-- Generator: Adobe Illustrator 21.0.1, SVG Export Plug-In . SVG Version: 6.00 Build 0)  -->
<svg version="1.1" id="Capa_1" xmlns="http://www.w3.org/2000/svg" xmlns:xlink="http://www.w3.org/1999/xlink" x="0px" y="0px"
	 viewBox="0 0 508 508" style="enable-background:new 0 0 508 508;" xml:space="preserve">
<style type="text/css">
	.st0{fill:#FFA236;}
	.st1{fill:#43B05C;}
	.st2{fill:#48A0DC;}
	.st3{fill:#3D994F;}
	.st4{fill:#4393BF;}
	.st5{fill:#EFCE4A;}
	.st6{fill:#D6B445;}
</style>
<circle class="st0" cx="254" cy="254" r="254"/>
<polygon class="st1" points="197.6,228.7 95.8,126.8 81.2,130.1 81.2,408.2 94.8,405.2 197.6,302.3 "/>
<polygon class="st2" points="141.8,394.7 197.6,382.3 197.6,338.9 "/>
<polygon class="st1" points="197.6,104.2 125.7,120.2 197.6,192.1 "/>
<polygon class="st1" points="401,98.9 307.6,130.1 307.6,192.4 "/>
<polygon class="st2" points="307.6,229 307.6,401.7 424,356.4 424,112.5 "/>
<polygon class="st3" points="252.8,247.2 307.6,192.4 307.6,130.1 197.6,104.2 197.6,192.1 "/>
<polygon class="st3" points="197.6,228.7 197.6,302.3 234.5,265.5 "/>
<polygon class="st4" points="197.6,338.9 197.6,382.3 307.6,401.7 307.6,229 "/>
<polygon class="st5" points="197.6,192.1 125.7,120.2 95.8,126.8 197.6,228.7 "/>
<polygon class="st5" points="197.6,302.3 94.8,405.2 141.8,394.7 197.6,338.9 "/>
<polygon class="st5" points="307.6,229 424,112.5 424,91.3 401,98.9 307.6,192.4 "/>
<polygon class="st6" points="252.8,247.2 197.6,192.1 197.6,228.7 234.5,265.5 197.6,302.3 197.6,338.9 307.6,229 307.6,192.4 "/>
</svg>
