<?xml version="1.0" encoding="utf-8"?>
<!-- Generator: Adobe Illustrator 21.0.1, SVG Export Plug-In . SVG Version: 6.00 Build 0)  -->
<svg version="1.1" id="Layer_1" xmlns="http://www.w3.org/2000/svg" xmlns:xlink="http://www.w3.org/1999/xlink" x="0px" y="0px"
	 viewBox="0 0 30 30" style="enable-background:new 0 0 30 30;" xml:space="preserve">
<title>phone</title>
<g id="Layer_2">
	<g id="sider">
		<path d="M21.3,0H8.7C7.5,0,6.5,1,6.5,2.2v25.6c0,1.2,1,2.2,2.2,2.2h12.6c1.2,0,2.2-1,2.2-2.2V2.2C23.5,1,22.5,0,21.3,0z M7.5,4h15
			v19h-15V4z M8.7,1h12.6c0.7,0,1.2,0.5,1.2,1.2c0,0,0,0,0,0V3h-15V2.2C7.5,1.5,8,1,8.7,1z M21.3,29H8.7c-0.7,0-1.2-0.5-1.2-1.2l0,0
			V24h15v3.8C22.5,28.5,22,29,21.3,29L21.3,29z"/>
		<path d="M15,24.5c-1.1,0-2,0.9-2,2s0.9,2,2,2s2-0.9,2-2S16.1,24.5,15,24.5z M15,27.5c-0.6,0-1-0.4-1-1s0.4-1,1-1s1,0.4,1,1
			S15.6,27.5,15,27.5z"/>
		<path d="M13,2.5h2c0.3,0,0.5-0.2,0.5-0.5S15.3,1.5,15,1.5h-2c-0.3,0-0.5,0.2-0.5,0.5S12.7,2.5,13,2.5z"/>
		<path d="M16.5,2.5H17c0.3,0,0.5-0.2,0.5-0.5S17.3,1.5,17,1.5h-0.5C16.2,1.5,16,1.7,16,2S16.2,2.5,16.5,2.5z"/>
		<path d="M28.3,2.3c-0.2-0.2-0.5-0.2-0.7,0c-0.2,0.2-0.2,0.5,0,0.7l0,0c1.9,1.9,1.9,4.9,0,6.8c-0.2,0.2-0.2,0.5,0,0.7
			c0.2,0.2,0.5,0.2,0.7,0C30.6,8.2,30.6,4.6,28.3,2.3C28.3,2.3,28.3,2.3,28.3,2.3z"/>
		<path d="M26.2,3.4c-0.2-0.2-0.5-0.2-0.7,0c-0.2,0.2-0.2,0.5,0,0.7c1.3,1.3,1.3,3.4,0,4.6c0,0,0,0,0,0c-0.2,0.2-0.2,0.5,0,0.7
			c0.2,0.2,0.5,0.2,0.7,0C27.9,7.8,27.9,5.1,26.2,3.4L26.2,3.4z"/>
		<path d="M2.4,3c0.2-0.2,0.2-0.5,0-0.7s-0.5-0.2-0.7,0c-2.3,2.3-2.3,5.9,0,8.2c0.2,0.2,0.5,0.2,0.7,0s0.2-0.5,0-0.7
			C0.5,7.9,0.5,4.9,2.4,3z"/>
		<path d="M4.5,3.3C4.3,3.1,4,3.1,3.8,3.3c0,0,0,0,0,0C2.1,5,2.1,7.7,3.8,9.3c0.2,0.2,0.5,0.2,0.7,0s0.2-0.5,0-0.7
			C3.2,7.3,3.2,5.3,4.5,4C4.7,3.8,4.7,3.5,4.5,3.3C4.5,3.3,4.5,3.3,4.5,3.3z"/>
	</g>
</g>
</svg>
