<svg xmlns="http://www.w3.org/2000/svg" viewBox="0 0 30 30"><defs><style>.cls-1{fill:#e7e5ce;}</style></defs><title>phone</title><g id="Layer_2" data-name="Layer 2"><g id="sider"><path class="cls-1" d="M21.3,0H8.7A2.21,2.21,0,0,0,6.5,2.2V27.8A2.21,2.21,0,0,0,8.7,30H21.3a2.21,2.21,0,0,0,2.2-2.2V2.2A2.21,2.21,0,0,0,21.3,0ZM7.5,4h15V23H7.5ZM8.7,1H21.3a1.2,1.2,0,0,1,1.2,1.2V3H7.5V2.2A1.2,1.2,0,0,1,8.7,1ZM21.3,29H8.7a1.2,1.2,0,0,1-1.2-1.2V24h15v3.8A1.2,1.2,0,0,1,21.3,29Z"/><path class="cls-1" d="M15,24.5a2,2,0,1,0,2,2A2,2,0,0,0,15,24.5Zm0,3a1,1,0,1,1,1-1A1,1,0,0,1,15,27.5Z"/><path class="cls-1" d="M13,2.5h2a.5.5,0,0,0,0-1H13a.5.5,0,0,0,0,1Z"/><path class="cls-1" d="M16.5,2.5H17a.5.5,0,0,0,0-1h-.5a.5.5,0,1,0,0,1Z"/><path class="cls-1" d="M28.31,2.28A.5.5,0,0,0,27.6,3a4.8,4.8,0,0,1,0,6.78.5.5,0,1,0,.71.71A5.8,5.8,0,0,0,28.31,2.28Z"/><path class="cls-1" d="M26.2,3.42a.5.5,0,0,0-.71.71,3.28,3.28,0,0,1,0,4.64.5.5,0,1,0,.71.71,4.28,4.28,0,0,0,0-6.05Z"/><path class="cls-1" d="M2.4,3a.5.5,0,0,0-.71-.71,5.8,5.8,0,0,0,0,8.19.5.5,0,0,0,.71-.71A4.8,4.8,0,0,1,2.4,3Z"/><path class="cls-1" d="M4.51,3.28a.5.5,0,0,0-.71,0,4.28,4.28,0,0,0,0,6.05.5.5,0,1,0,.71-.71A3.28,3.28,0,0,1,4.51,4,.5.5,0,0,0,4.51,3.28Z"/></g></g></svg>