<svg xmlns="http://www.w3.org/2000/svg" viewBox="0 0 30 30"><defs><style>.cls-1{fill:#e7e5ce;}</style></defs><title>location</title><g id="Layer_2" data-name="Layer 2"><g id="sider"><path class="cls-1" d="M15,13a3.5,3.5,0,1,0-3.5-3.5A3.5,3.5,0,0,0,15,13Zm0-6a2.5,2.5,0,1,1-2.5,2.5A2.5,2.5,0,0,1,15,7Z"/><path class="cls-1" d="M14.91,27.38,22.58,16.3a10.93,10.93,0,0,0-.89-13.49,9.59,9.59,0,0,0-13.56,0,10.92,10.92,0,0,0-.9,13.48ZM8.84,3.52A8.59,8.59,0,0,1,21,3.52a9.87,9.87,0,0,1,.79,12.2l-6.86,9.91L8,15.7A9.87,9.87,0,0,1,8.84,3.52Z"/><path class="cls-1" d="M21.06,21.5a.5.5,0,1,0-.12,1c5.26.62,8.06,2.29,8.06,3.25C29,27.11,23.67,29,15,29S1,27.11,1,25.75c0-1,2.8-2.63,8.06-3.25a.5.5,0,0,0-.12-1C3.68,22.12,0,23.87,0,25.75,0,27.86,5.15,30,15,30s15-2.14,15-4.25C30,23.87,26.32,22.12,21.06,21.5Z"/></g></g></svg>