<?xml version="1.0" encoding="utf-8"?>
<!-- Generator: Adobe Illustrator 21.0.1, SVG Export Plug-In . SVG Version: 6.00 Build 0)  -->
<svg version="1.1" id="Layer_1" xmlns="http://www.w3.org/2000/svg" xmlns:xlink="http://www.w3.org/1999/xlink" x="0px" y="0px"
	 viewBox="0 0 508 511.7" style="enable-background:new 0 0 508 511.7;" xml:space="preserve">
<style type="text/css">
	.st0{fill:#FFA236;}
	.st1{fill:#ECF0F1;}
	.st2{fill:#455E6B;}
	.st3{fill:#FFF400;}
	.st4{fill:none;stroke:#5B5D6E;stroke-width:0.25;stroke-miterlimit:10;}
</style>
<title>projects</title>
<g id="Layer_2">
	<g>
		<g>
			<g id="main_9_">
				<circle class="st0" cx="254" cy="254" r="254"/>
				<path class="st1" d="M329.9,140.5V140c-0.6-0.6-0.6-1.1-1.1-1.7l-54.6-54.6c-0.6-0.5-1.1-0.5-1.7-1.1H272
					c-0.6,0-1.1-0.6-1.7-0.6H95.6c-2.9-0.2-5.3,2-5.5,4.9c0,0.2,0,0.4,0,0.6v316.7c-0.2,2.9,2,5.3,4.9,5.5c0.2,0,0.4,0,0.6,0h229.2
					c2.8,0.3,5.4-1.8,5.6-4.7c0-0.3,0-0.5,0-0.8v-262C330.5,141.6,330.3,141,329.9,140.5z M275.8,100.7l36,36h-36V100.7z"/>
				<path class="st2" d="M210.3,158.5c-42.2,0.2-76.3,34.3-76.4,76.5c0,29.5,17,56.3,43.7,68.8v40.4c-0.2,2.9,2,5.3,4.9,5.5
					c0.2,0,0.4,0,0.6,0h5.5v21.9c-0.2,2.9,2,5.3,4.9,5.5c0.2,0,0.4,0,0.6,0h32.8c2.9,0.2,5.3-2,5.5-4.9c0-0.2,0-0.4,0-0.6v-21.8h5.5
					c2.9,0.2,5.3-2,5.5-4.9c0-0.2,0-0.4,0-0.6v-40.4c26.7-12.5,43.7-39.3,43.7-68.8C286.6,192.9,252.5,158.7,210.3,158.5z
					 M221.2,366.1h-22.1v-16.4H221L221.2,366.1z M235.4,295.7c-2.1,0.6-3.5,2.7-3.3,4.9v38.2h-43.7v-10.9h27.5v-10.8h-27.5v-16.5
					c0-2.1-1.3-4.1-3.3-4.9c-33.4-13.9-49.2-52.3-35.3-85.7s52.3-49.2,85.7-35.3s49.2,52.3,35.3,85.7
					C264.1,276.4,251.5,289.1,235.4,295.7L235.4,295.7z"/>
				<path class="st3" d="M215.8,226.3l14.7-14.7l-7.7-7.7l-12.6,12.6L197.7,204l-7.7,7.7l14.8,14.8v57.8h10.9L215.8,226.3z"/>
				<path class="st1" d="M412.4,82.1h-32.8c-2.9-0.2-5.3,2-5.5,4.9c0,0.2,0,0.4,0,0.6v21.9h-16.4c-2.9-0.2-5.3,2-5.5,4.9
					c0,0.2,0,0.4,0,0.6v163.9h10.9V120.3H374v234.9c0,1.2,0.4,2.3,1.1,3.3L391,406c0.7,2.7,3.6,4.3,6.3,3.6c1.7-0.5,3.1-1.8,3.6-3.6
					l15.9-47.6c0.6-1,1-2.1,1.1-3.3V87.6c0.2-2.9-2-5.3-4.8-5.5C412.8,82.1,412.6,82.1,412.4,82.1z"/>
				<line class="st4" x1="374.2" y1="355.2" x2="417.9" y2="355.2"/>
			</g>
		</g>
	</g>
</g>
</svg>
