<?xml version="1.0" encoding="utf-8"?>
<!-- Generator: Adobe Illustrator 21.0.1, SVG Export Plug-In . SVG Version: 6.00 Build 0)  -->
<svg version="1.1" id="Layer_1" xmlns="http://www.w3.org/2000/svg" xmlns:xlink="http://www.w3.org/1999/xlink" x="0px" y="0px"
	 viewBox="0 0 508 508" style="enable-background:new 0 0 508 508;" xml:space="preserve">
<style type="text/css">
	.st0{fill:#FFA236;}
	.st1{fill:#2B414D;}
	.st2{fill:#536877;}
	.st3{fill:#3A4D5D;}
	.st4{fill:#527681;}
	.st5{fill:#4F6472;}
</style>
<title>Asset 1</title>
<g id="Layer_2">
	<g>
		<g>
			<g id="main_9_">
				<circle class="st0" cx="254" cy="254" r="254"/>
				<path class="st1" d="M199,264.6h-3.2c-0.1,12.4-2.2,17.3-2.2,17.3l11.9,2.2C201.3,278.3,199.1,271.6,199,264.6z M199,237.6h-3.2
					v24.8h3.2V237.6z M199,264.6h-3.2c-0.1,12.4-2.2,17.3-2.2,17.3l11.9,2.2C201.3,278.3,199.1,271.6,199,264.6z M199,237.6h-3.2
					v24.8h3.2V237.6z"/>
				<path class="st2" d="M89.5,304.1c9.5,0,17.2,7.7,17.2,17.2s-7.7,17.2-17.2,17.2c-9.4,0-17.1-7.7-17.1-17.1
					C72.4,312,80,304.3,89.5,304.1z"/>
				<path class="st3" d="M57.8,228.2l185.9-88.1c6.6-2.8,14-2.8,20.5,0l185.9,88.1c5.6,2.8,5.6,7.8,0,10.7l-185.8,88.2
					c-6.6,2.8-14,2.8-20.5,0l-186-88.2C52.2,236.1,52.2,231.1,57.8,228.2z M254.1,275.3c59,0,106.6,21.3,106.6,47.4
					S313,370,254.1,370s-106.6-21.3-106.6-47.3S195.1,275.3,254.1,275.3z"/>
				<path class="st4" d="M351.4,250.5c0-22.3-43.2-40.4-96.9-40.4s-96.7,17.8-97,40.1c0,0-10.3,72.7-10,72.7
					c0-21.3,44.8-47.4,106.9-47.4c57.7,0,100.6,27,106.3,47L351.4,250.5z"/>
				<path class="st5" d="M267.4,214.1v61.1c50.7,1.7,88,25.6,93.3,43.7l-8.6-67.2C352.1,231.6,314.6,215.5,267.4,214.1z"/>
			</g>
		</g>
	</g>
</g>
</svg>
