<svg xmlns="http://www.w3.org/2000/svg" viewBox="0 0 30 24.44"><defs><style>.cls-1{fill:#e7e5ce;}</style></defs><title>twitter</title><g id="Layer_2" data-name="Layer 2"><g id="sider"><path class="cls-1" d="M29.83,2.75a.67.67,0,0,0-.61-.15L28.2,3A7,7,0,0,0,29.47.77a.53.53,0,0,0-.1-.61.54.54,0,0,0-.61-.1,37.3,37.3,0,0,1-3.67,1.43c0,.05-.05,0-.1,0A10.6,10.6,0,0,0,20.76,0a6.73,6.73,0,0,0-6.52,6.82V7C9,6,6,4.48,2.89,1.17L2.38.66l-.31.61C.35,4.58,1.57,7.59,3.55,9.63a4.16,4.16,0,0,1-2.09-.92.61.61,0,0,0-.71-.05.63.63,0,0,0-.25.66,10,10,0,0,0,4.43,5.5,4.08,4.08,0,0,1-2.44-.61.72.72,0,0,0-.71.05.56.56,0,0,0-.2.66,6.14,6.14,0,0,0,5.55,4.33A12.49,12.49,0,0,1,.7,20.88a.72.72,0,0,0-.66.46.71.71,0,0,0,.2.76c1.83,1.48,5.91,2.34,10.95,2.34,9,0,16.29-8,16.29-17.82V6.47A5,5,0,0,0,30,3.36.67.67,0,0,0,29.83,2.75Zm-3.06,2.9-.31.1v.87c0,9.27-6.87,16.8-15.28,16.8-4.63,0-7.74-.76-9.42-1.58a12.25,12.25,0,0,0,7.13-2.6l1.27-.92H8.65c-2.9,0-4.68-.81-5.7-2.75a8,8,0,0,0,3,.25,9.81,9.81,0,0,1,1.22-.05l.15-1a9.2,9.2,0,0,1-5.35-4.63,7.68,7.68,0,0,0,3.16.56H6.66L5.39,9.78C4.32,9,1.16,6.32,2.69,2.45c3.26,3.21,6.37,4.68,12,5.7l.61.1V6.83A5.71,5.71,0,0,1,20.76,1c1.17-.05,3.11,1,3.67,1.32a1.17,1.17,0,0,0,.92.1c.76-.25,1.68-.61,2.7-1a8.14,8.14,0,0,1-1.88,2.14.61.61,0,0,0-.15.71.51.51,0,0,0,.66.25l2-.66A3.6,3.6,0,0,1,26.77,5.65Z"/></g></g></svg>