<?xml version="1.0" encoding="utf-8"?>
<!-- Generator: Adobe Illustrator 21.0.1, SVG Export Plug-In . SVG Version: 6.00 Build 0)  -->
<svg version="1.1" id="Layer_1" xmlns="http://www.w3.org/2000/svg" xmlns:xlink="http://www.w3.org/1999/xlink" x="0px" y="0px"
	 viewBox="0 0 30 24.4" style="enable-background:new 0 0 30 24.4;" xml:space="preserve">
<title>twitter</title>
<g id="Layer_2">
	<g id="sider">
		<path d="M29.8,2.7c-0.2-0.1-0.4-0.2-0.6-0.2l-1,0.4c0.6-0.7,1-1.4,1.3-2.2c0.1-0.2,0.1-0.4-0.1-0.6C29.2,0,29,0,28.8,0.1
			c-1.2,0.5-2.4,1-3.7,1.4c0,0,0,0-0.1,0c-1.3-0.8-2.7-1.3-4.2-1.5c-3.7,0.1-6.6,3.1-6.5,6.8V7C9,6,6,4.5,2.9,1.2L2.4,0.7L2.1,1.3
			C0.3,4.6,1.6,7.6,3.5,9.6C2.8,9.5,2.1,9.2,1.5,8.7C1.3,8.5,1,8.5,0.8,8.7C0.5,8.8,0.4,9.1,0.5,9.3c0.8,2.3,2.3,4.3,4.4,5.5
			c-0.9,0.1-1.7-0.2-2.4-0.6c-0.2-0.1-0.5-0.1-0.7,0.1c-0.2,0.1-0.3,0.4-0.2,0.7c0.8,2.5,3,4.2,5.6,4.3c-2,1.1-4.2,1.7-6.4,1.6
			c-0.3,0-0.6,0.2-0.7,0.5c-0.1,0.3,0,0.6,0.2,0.8c1.8,1.5,5.9,2.3,10.9,2.3c9,0,16.3-8,16.3-17.8V6.5c1.2-0.6,2.1-1.8,2.5-3.1
			C30,3.1,30,2.9,29.8,2.7z M26.8,5.6l-0.3,0.1v0.9c0,9.3-6.9,16.8-15.3,16.8c-4.6,0-7.7-0.8-9.4-1.6c2.6-0.1,5.1-1,7.1-2.6l1.3-0.9
			H8.6c-2.9,0-4.7-0.8-5.7-2.7c1,0.3,2,0.4,3,0.2c0.4,0,0.8-0.1,1.2-0.1l0.2-1C5,14,3.1,12.3,2,10.1c1,0.4,2.1,0.6,3.2,0.6h1.5
			L5.4,9.8C4.3,9,1.2,6.3,2.7,2.4c3.3,3.2,6.4,4.7,12,5.7l0.6,0.1V6.8c-0.1-3.1,2.4-5.7,5.5-5.8c1.2-0.1,3.1,1,3.7,1.3
			c0.3,0.2,0.6,0.2,0.9,0.1c0.8-0.2,1.7-0.6,2.7-1c-0.5,0.8-1.1,1.5-1.9,2.1C26,3.7,25.9,4,26,4.3c0.1,0.2,0.4,0.4,0.7,0.2l2-0.7
			C28.3,4.7,27.6,5.3,26.8,5.6z"/>
	</g>
</g>
</svg>
